<svg xmlns="http://www.w3.org/2000/svg" viewBox="0 0 43 43" width="43" height="43">
	<style>
		tspan { white-space:pre }
		.shp0 { opacity: 0.502;fill: #f5c506 } 
		.shp1 { fill: #f5c506 } 
	</style>
	<g id="menu">
		<g id="logo">
			<g id="Group 1">
				<path id="Shape 8 copy 4" class="shp0" d="M3.04 12.47L11.99 12.14L11.93 3.31L15.76 6.91L15.82 15.74L6.86 16.08L3.04 12.47ZM8.84 17.94L17.8 17.61L17.74 8.77L21.56 12.38L21.62 21.21L12.67 21.54L8.84 17.94ZM31.65 39.43L31.59 30.6L40.55 30.27L36.73 26.66L27.77 27L27.83 35.83L31.65 39.43ZM25.85 33.96L25.79 25.13L34.75 24.8L30.92 21.19L21.96 21.53L22.02 30.36L25.85 33.96ZM30.82 2.89L31.16 11.71L40.13 11.66L36.47 15.42L27.51 15.48L27.17 6.66L30.82 2.89ZM25.27 8.61L25.61 17.43L34.58 17.37L30.92 21.14L21.96 21.2L21.62 12.38L25.27 8.61ZM3.46 31.08L12.42 31.02L12.76 39.85L16.42 36.08L16.08 27.25L7.12 27.31L3.46 31.08ZM9.01 25.36L17.97 25.3L18.31 34.13L21.97 30.36L21.63 21.54L12.67 21.6L9.01 25.36Z" />
				<path id="Shape 8 copy 3" class="shp1" d="M2 27.84L8.23 21.5L2 15.16L7.29 15.16L13.53 21.5L7.29 27.84L2 27.84ZM10.03 27.84L16.27 21.5L10.03 15.16L15.32 15.16L21.56 21.5L15.32 27.84L10.03 27.84ZM41.59 27.84L35.35 21.5L41.59 15.16L36.3 15.16L30.06 21.5L36.3 27.84L41.59 27.84ZM33.56 27.84L27.32 21.5L33.56 15.16L28.27 15.16L22.03 21.5L28.27 27.84L33.56 27.84ZM15.36 2L21.79 8.14L28.23 2L28.23 7.21L21.79 13.36L15.36 7.21L15.36 2ZM15.36 9.91L21.79 16.05L28.23 9.91L28.23 15.12L21.79 21.27L15.36 15.12L15.36 9.91ZM15.36 41L21.79 34.86L28.23 41L28.23 35.79L21.79 29.64L15.36 35.79L15.36 41ZM15.36 33.09L21.79 26.94L28.23 33.09L28.23 27.88L21.79 21.73L15.36 27.88L15.36 33.09Z" />
			</g>
		</g>
	</g>
</svg>