<svg xmlns="http://www.w3.org/2000/svg" viewBox="0 0 87 87" width="87" height="87">
	<style>
		tspan { white-space:pre }
		.shp0 { opacity: 0.502;fill: #f5c506 } 
		.shp1 { fill: #f5c506 } 
	</style>
	<g id="bnner+header">
		<g id="logo ">
			<path id="Shape 8 copy 4" class="shp0" d="M4.17 24.29L22.95 23.57L22.83 4.78L30.85 12.45L30.97 31.24L12.19 31.95L4.17 24.29ZM16.34 35.92L35.12 35.21L35 16.42L43.02 24.09L43.14 42.88L24.36 43.59L16.34 35.92ZM64.17 81.66L64.04 62.87L82.83 62.15L74.81 54.49L56.03 55.2L56.15 73.99L64.17 81.66ZM52 70.02L51.87 51.23L70.66 50.52L62.64 42.85L43.86 43.56L43.98 62.36L52 70.02ZM62.43 3.89L63.15 22.67L81.94 22.55L74.27 30.57L55.48 30.69L54.77 11.91L62.43 3.89ZM50.8 16.06L51.51 34.85L70.3 34.72L62.63 42.74L43.84 42.86L43.13 24.08L50.8 16.06ZM5.06 63.89L23.85 63.77L24.57 82.55L32.23 74.53L31.52 55.75L12.73 55.87L5.06 63.89ZM16.7 51.72L35.49 51.6L36.2 70.38L43.87 62.36L43.16 43.58L24.37 43.7L16.7 51.72Z" />
			<path id="Shape 8 copy 3" class="shp1" d="M1.99 57L15.07 43.5L1.99 30L13.09 30L26.17 43.5L13.09 57L1.99 57ZM18.83 57L31.91 43.5L18.83 30L29.93 30L43.01 43.5L29.93 57L18.83 57ZM85.01 57L71.93 43.5L85.01 30L73.91 30L60.83 43.5L73.91 57L85.01 57ZM68.17 57L55.09 43.5L68.17 30L57.07 30L43.99 43.5L57.07 57L68.17 57ZM30 1.99L43.5 15.07L57 1.99L57 13.09L43.5 26.17L30 13.09L30 1.99ZM30 18.83L43.5 31.91L57 18.83L57 29.93L43.5 43.01L30 29.93L30 18.83ZM30 85.01L43.5 71.93L57 85.01L57 73.91L43.5 60.83L30 73.91L30 85.01ZM30 68.17L43.5 55.09L57 68.17L57 57.07L43.5 43.99L30 57.07L30 68.17Z" />
		</g>
	</g>
</svg>