<svg width="110" height="75" xmlns="http://www.w3.org/2000/svg" xmlns:xlink="http://www.w3.org/1999/xlink" xmlns:svgjs="http://svgjs.com/svgjs" viewBox="0 0.161 110 74.679"><svg xmlns="http://www.w3.org/2000/svg" width="110" height="75" viewBox="2 2 109 74" fill="#f5c506"><path fill="#F5C506" paint-order="stroke fill markers" fill-rule="evenodd" d="M83.75 76H25.844C12.675 76 2 65.458 2 52.454c0-10.68 7.247-19.596 17.117-22.478-.018-.36-.086-.701-.086-1.067 0-9.289 7.625-16.818 17.031-16.818 1.884 0 3.664.374 5.357.931C46.38 6.37 54.304 2 63.312 2c12.954 0 23.746 8.945 26.515 20.908C101.941 25.643 111 36.3 111 49.09 111 63.952 98.8 76 83.75 76zM63.312 49.09V28.91H49.687v20.182H39.256L56.5 66.119l17.244-17.028H63.312z"/></svg></svg>