<svg width="164" height="134" xmlns="http://www.w3.org/2000/svg" xmlns:xlink="http://www.w3.org/1999/xlink" xmlns:svgjs="http://svgjs.com/svgjs" viewBox="0 0.096 164 133.809"><svg xmlns="http://www.w3.org/2000/svg" width="164" height="134" viewBox="6.999 1.999 163 132.993" fill="#bc7d00"><path fill="#BC7D00" paint-order="stroke fill markers" fill-rule="evenodd" d="M169.999 17.313l-15.281 15.313v2.552c0 2.799-.45 5.472-1.101 8.069-.356 21.066-7.052 49-34.556 71.05C64.961 157.668 7 119.402 7 119.402c45.844 0 45.844-15.314 45.844-15.314-10.188 0-30.563-20.417-30.563-20.417 5.094 5.104 15.282 0 15.282 0-25.47-15.314-25.47-30.627-25.47-30.627 5.094 5.104 15.282 0 15.282 0C1.905 32.626 17.186 7.104 17.186 7.104 22.28 32.625 88.5 42.833 88.5 42.833l.842-.422c-.52-2.334-.842-7.294-.842-9.786 0-18.324 14.823-30.627 33.109-30.627 10.065 0 18.97 4.596 25.042 11.699l2.974-1.49L164.905 2l-10.187 20.418 15.28-5.104z"/></svg></svg>